# File created by Blade
# Date/Time:  Thu Sep 25 17:33:50 2014
# Frame Rate: 120.000 fps
#------------------------------------------------------
:FULLY-SPECIFIED
:DEGREES
2332
root -3.386798 34.637198 -3.519270 24.876710 18.906492 55.893728
Spine 3.597846 -10.708462 -39.964666
Head -16.120097 31.465161 -13.961842
LeftShoulder 10.487431 2.142053 11.648889
LeftArm 73.311738 25.066173 -39.098827
LeftForeArm 34.320365 -0.000000 105.039846
LeftHand -25.828257 -0.000000 33.336561
LeftHandThumb1 -26.253704 0.000000 33.147579
RightShoulder -14.134180 14.389845 -26.068988
RightArm 16.328566 -21.337477 51.150419
RightForeArm -22.388757 -0.000000 128.523098
RightHand 0.604988 -0.000000 -28.746340
RightHandThumb1 -24.326973 -0.000000 -32.862282
LeftUpLeg -92.415366 45.162049 14.684424
LeftLeg 92.363156 -0.000000 -0.000000
LeftFoot 36.741177 19.068505 -11.611891
LeftToeBase 9.721086 -0.000000 -0.000000
RightUpLeg -13.194840 -12.705752 -50.402184
RightLeg 31.107136 -0.000000 -0.000000
RightFoot -12.588692 -27.794373 -4.809171
RightToeBase 0.092126 -0.000000 -0.000000
2333
root -3.341331 34.647367 -3.549238 24.996554 18.942770 56.458591
Spine 3.809073 -10.499848 -40.361988
Head -15.949373 31.171685 -13.998758
LeftShoulder 10.612672 1.419306 11.672494
LeftArm 72.928342 25.529034 -39.263536
LeftForeArm 34.170838 -0.000000 104.889941
LeftHand -25.736110 0.000000 33.406000
LeftHandThumb1 -26.253704 0.000000 33.147579
RightShoulder -14.149901 14.303220 -26.125443
RightArm 16.120651 -21.224200 51.252460
RightForeArm -22.348549 -0.000000 128.546528
RightHand 0.584672 -0.000000 -28.687730
RightHandThumb1 -24.326973 -0.000000 -32.862282
LeftUpLeg -91.908758 45.388277 15.523934
LeftLeg 88.965653 -0.000000 -0.000000
LeftFoot 36.928235 19.939849 -11.355690
LeftToeBase 10.064661 -0.000000 -0.000000
RightUpLeg -12.922110 -12.539890 -51.031466
RightLeg 31.086817 -0.000000 -0.000000
RightFoot -12.500668 -28.093639 -4.879659
RightToeBase 0.202035 -0.000000 -0.000000
2334
root -3.304825 34.654277 -3.574838 25.123821 19.002612 56.936198
Spine 3.997529 -10.289260 -40.706047
Head -15.849888 30.887372 -13.977201
LeftShoulder 10.673002 1.726980 11.864936
LeftArm 73.379177 25.240946 -39.032878
LeftForeArm 34.235392 -0.000000 104.646375
LeftHand -25.634898 -0.000000 33.154697
LeftHandThumb1 -26.253704 0.000000 33.147579
RightShoulder -14.171599 14.154093 -26.043305
RightArm 15.967954 -21.090421 51.233663
RightForeArm -22.386235 -0.000000 128.549726
RightHand 0.615705 -0.000000 -28.620218
RightHandThumb1 -24.326973 -0.000000 -32.862282
LeftUpLeg -91.148123 45.556693 16.527937
LeftLeg 85.194540 -0.000000 -0.000000
LeftFoot 36.718175 20.868168 -11.231458
LeftToeBase 10.914872 -0.000000 -0.000000
RightUpLeg -12.680204 -12.443495 -51.547665
RightLeg 31.057049 -0.000000 -0.000000
RightFoot -12.445659 -28.324256 -4.968062
RightToeBase 0.278951 -0.000000 -0.000000
2335
root -3.271887 34.661205 -3.601024 25.239137 19.045130 57.420527
Spine 4.195606 -10.087808 -41.072436
Head -15.734621 30.522357 -13.945493
LeftShoulder 10.763125 1.785128 12.004740
LeftArm 73.539754 25.034108 -38.847833
LeftForeArm 34.297342 -0.000000 104.423750
LeftHand -25.176449 0.000000 32.796926
LeftHandThumb1 -26.253704 0.000000 33.147579
RightShoulder -14.163664 14.068394 -26.022721
RightArm 15.694319 -21.069504 51.285968
RightForeArm -22.313683 -0.000000 128.615460
RightHand 0.282865 -0.000000 -28.625069
RightHandThumb1 -24.326973 -0.000000 -32.862282
LeftUpLeg -90.067715 45.681723 17.623298
LeftLeg 81.025530 -0.000000 -0.000000
LeftFoot 36.788875 21.322323 -10.824472
LeftToeBase 10.715110 -0.000000 -0.000000
RightUpLeg -12.440615 -12.217776 -52.069183
RightLeg 31.023322 -0.000000 -0.000000
RightFoot -12.363590 -28.641933 -5.045082
RightToeBase 0.399444 -0.000000 -0.000000
2336
root -3.247501 34.663997 -3.623784 25.330307 19.081356 57.819499
Spine 4.377845 -9.886373 -41.388618
Head -15.693033 30.130235 -13.912396
LeftShoulder 10.854493 1.792015 12.143947
LeftArm 73.683774 24.845298 -38.549835
LeftForeArm 34.391467 0.000000 104.224166
LeftHand -25.399936 -0.000000 33.109654
LeftHandThumb1 -26.253704 0.000000 33.147579
RightShoulder -14.171360 13.930115 -25.968051
RightArm 15.502845 -21.067782 51.279390
RightForeArm -22.461252 -0.000000 128.583190
RightHand 0.158093 -0.000000 -28.730346
RightHandThumb1 -24.326973 -0.000000 -32.862282
LeftUpLeg -88.744636 45.783851 18.825687
LeftLeg 76.456209 -0.000000 -0.000000
LeftFoot 36.584990 21.938388 -10.604000
LeftToeBase 11.442726 -0.000000 -0.000000
RightUpLeg -12.277226 -12.055732 -52.489558
RightLeg 31.064586 -0.000000 -0.000000
RightFoot -12.289130 -28.917731 -5.205544
RightToeBase 0.598703 -0.000000 -0.000000
